<svg xmlns="http://www.w3.org/2000/svg" xmlns:xlink="http://www.w3.org/1999/xlink" width="500" zoomAndPan="magnify" viewBox="0 0 375 374.999991" height="500" preserveAspectRatio="xMidYMid meet" version="1.0"><defs><g/><clipPath id="00840621b2"><rect x="0" width="34" y="0" height="29"/></clipPath></defs><path fill="#000000" d="M 90.875 213.332031 C 109.9375 224.414062 79.121094 242.082031 79.195312 220.03125 C 79.132812 242.078125 48.421875 224.230469 67.546875 213.261719 C 48.421875 224.230469 48.523438 188.703125 67.585938 199.789062 C 48.519531 188.707031 79.335938 171.039062 79.273438 193.089844 C 79.335938 171.042969 110.046875 188.890625 90.921875 199.863281 C 110.039062 188.890625 109.933594 224.414062 90.875 213.332031 Z M 90.875 213.332031 " fill-opacity="1" fill-rule="nonzero"/><path fill="#000000" d="M 79.660156 197.816406 C 79.808594 197.816406 79.9375 197.871094 80.042969 197.976562 C 80.148438 198.082031 80.203125 198.210938 80.203125 198.359375 L 80.203125 202.171875 C 80.203125 202.324219 80.148438 202.449219 80.042969 202.558594 C 79.9375 202.664062 79.808594 202.714844 79.660156 202.714844 C 79.511719 202.714844 79.382812 202.664062 79.277344 202.558594 C 79.171875 202.449219 79.117188 202.324219 79.117188 202.171875 L 79.117188 198.359375 C 79.117188 198.210938 79.171875 198.082031 79.277344 197.976562 C 79.382812 197.871094 79.511719 197.816406 79.660156 197.816406 Z M 79.660156 197.816406 " fill-opacity="1" fill-rule="nonzero"/><path fill="#000000" d="M 73.347656 200.070312 C 73.453125 199.964844 73.582031 199.914062 73.730469 199.914062 C 73.878906 199.914062 74.007812 199.96875 74.113281 200.074219 L 76.808594 202.769531 C 76.914062 202.875 76.96875 203.003906 76.96875 203.152344 C 76.96875 203.300781 76.917969 203.429688 76.808594 203.535156 C 76.703125 203.640625 76.578125 203.695312 76.425781 203.695312 C 76.277344 203.695312 76.148438 203.640625 76.042969 203.535156 L 73.347656 200.839844 C 73.242188 200.734375 73.1875 200.605469 73.1875 200.457031 C 73.1875 200.304688 73.242188 200.179688 73.347656 200.070312 Z M 73.347656 200.070312 " fill-opacity="1" fill-rule="nonzero"/><path fill="#000000" d="M 70.480469 206.128906 C 70.480469 205.980469 70.53125 205.851562 70.636719 205.746094 C 70.742188 205.640625 70.871094 205.585938 71.023438 205.585938 L 74.835938 205.585938 C 74.984375 205.585938 75.113281 205.640625 75.21875 205.746094 C 75.324219 205.851562 75.378906 205.980469 75.378906 206.128906 C 75.378906 206.277344 75.324219 206.40625 75.21875 206.511719 C 75.113281 206.617188 74.984375 206.671875 74.835938 206.671875 L 71.023438 206.671875 C 70.871094 206.671875 70.742188 206.617188 70.636719 206.511719 C 70.53125 206.40625 70.480469 206.277344 70.480469 206.128906 Z M 70.480469 206.128906 " fill-opacity="1" fill-rule="nonzero"/><path fill="#000000" d="M 72.734375 212.441406 C 72.628906 212.335938 72.578125 212.207031 72.578125 212.058594 C 72.578125 211.90625 72.628906 211.78125 72.738281 211.671875 L 75.433594 208.976562 C 75.539062 208.871094 75.667969 208.820312 75.816406 208.820312 C 75.964844 208.820312 76.09375 208.871094 76.199219 208.976562 C 76.304688 209.082031 76.359375 209.210938 76.359375 209.359375 C 76.359375 209.511719 76.304688 209.636719 76.199219 209.742188 L 73.503906 212.441406 C 73.398438 212.546875 73.269531 212.597656 73.121094 212.597656 C 72.96875 212.597656 72.839844 212.546875 72.734375 212.441406 Z M 72.734375 212.441406 " fill-opacity="1" fill-rule="nonzero"/><path fill="#000000" d="M 78.792969 215.308594 C 78.640625 215.308594 78.515625 215.257812 78.410156 215.152344 C 78.304688 215.046875 78.25 214.917969 78.25 214.765625 L 78.25 210.953125 C 78.25 210.804688 78.304688 210.675781 78.410156 210.570312 C 78.515625 210.464844 78.640625 210.410156 78.792969 210.410156 C 78.941406 210.410156 79.070312 210.464844 79.175781 210.570312 C 79.28125 210.675781 79.335938 210.804688 79.335938 210.953125 L 79.335938 214.765625 C 79.335938 214.917969 79.28125 215.046875 79.175781 215.152344 C 79.070312 215.257812 78.941406 215.308594 78.792969 215.308594 Z M 78.792969 215.308594 " fill-opacity="1" fill-rule="nonzero"/><path fill="#000000" d="M 85.101562 213.054688 C 84.996094 213.160156 84.871094 213.210938 84.71875 213.210938 C 84.570312 213.210938 84.441406 213.160156 84.335938 213.054688 L 81.640625 210.359375 C 81.535156 210.25 81.480469 210.125 81.480469 209.972656 C 81.480469 209.824219 81.535156 209.695312 81.640625 209.589844 C 81.746094 209.484375 81.871094 209.433594 82.023438 209.433594 C 82.171875 209.433594 82.300781 209.484375 82.40625 209.589844 L 85.101562 212.289062 C 85.207031 212.394531 85.261719 212.519531 85.261719 212.671875 C 85.261719 212.820312 85.207031 212.949219 85.101562 213.054688 Z M 85.101562 213.054688 " fill-opacity="1" fill-rule="nonzero"/><path fill="#000000" d="M 87.972656 206.996094 C 87.972656 207.144531 87.917969 207.273438 87.8125 207.378906 C 87.707031 207.484375 87.578125 207.539062 87.429688 207.539062 L 83.617188 207.539062 C 83.464844 207.539062 83.335938 207.484375 83.230469 207.378906 C 83.125 207.273438 83.074219 207.144531 83.074219 206.996094 C 83.074219 206.847656 83.125 206.71875 83.230469 206.613281 C 83.335938 206.507812 83.464844 206.453125 83.617188 206.453125 L 87.429688 206.453125 C 87.578125 206.453125 87.707031 206.507812 87.8125 206.613281 C 87.917969 206.71875 87.972656 206.847656 87.972656 206.996094 Z M 87.972656 206.996094 " fill-opacity="1" fill-rule="nonzero"/><path fill="#000000" d="M 85.71875 200.6875 C 85.824219 200.792969 85.875 200.921875 85.875 201.070312 C 85.875 201.21875 85.824219 201.347656 85.71875 201.453125 L 83.019531 204.148438 C 82.914062 204.253906 82.789062 204.308594 82.636719 204.308594 C 82.488281 204.308594 82.359375 204.257812 82.253906 204.148438 C 82.148438 204.042969 82.09375 203.917969 82.09375 203.765625 C 82.097656 203.617188 82.148438 203.488281 82.253906 203.382812 L 84.949219 200.6875 C 85.058594 200.582031 85.183594 200.527344 85.335938 200.527344 C 85.484375 200.527344 85.613281 200.582031 85.71875 200.6875 Z M 85.71875 200.6875 " fill-opacity="1" fill-rule="nonzero"/><path fill="#000000" d="M 81.40625 206.5625 C 81.40625 206.851562 81.351562 207.128906 81.238281 207.398438 C 81.128906 207.664062 80.972656 207.898438 80.765625 208.105469 C 80.5625 208.308594 80.328125 208.464844 80.058594 208.578125 C 79.792969 208.6875 79.515625 208.742188 79.226562 208.742188 C 78.9375 208.742188 78.660156 208.6875 78.390625 208.578125 C 78.125 208.464844 77.890625 208.308594 77.683594 208.105469 C 77.480469 207.898438 77.324219 207.664062 77.210938 207.398438 C 77.101562 207.128906 77.046875 206.851562 77.046875 206.5625 C 77.046875 206.273438 77.101562 205.996094 77.210938 205.730469 C 77.324219 205.460938 77.480469 205.226562 77.683594 205.023438 C 77.890625 204.816406 78.125 204.660156 78.390625 204.550781 C 78.660156 204.4375 78.9375 204.382812 79.226562 204.382812 C 79.515625 204.382812 79.792969 204.4375 80.058594 204.550781 C 80.328125 204.660156 80.5625 204.816406 80.765625 205.023438 C 80.972656 205.226562 81.128906 205.460938 81.238281 205.730469 C 81.351562 205.996094 81.40625 206.273438 81.40625 206.5625 Z M 81.40625 206.5625 " fill-opacity="1" fill-rule="nonzero"/><g fill="#000000" fill-opacity="1"><g transform="translate(52.298709, 174.531289)"><g><path d="M 2.921875 0 L 2.921875 -24.9375 L 11.53125 -24.9375 L 11.53125 -22.3125 L 11.625 -22.3125 C 13.851562 -24.550781 16.234375 -25.671875 18.765625 -25.671875 C 19.992188 -25.671875 21.21875 -25.507812 22.4375 -25.1875 C 23.65625 -24.863281 24.820312 -24.359375 25.9375 -23.671875 C 27.0625 -22.992188 27.96875 -22.03125 28.65625 -20.78125 C 29.351562 -19.539062 29.703125 -18.09375 29.703125 -16.4375 L 29.703125 0 L 21.109375 0 L 21.109375 -14.09375 C 21.109375 -15.394531 20.691406 -16.53125 19.859375 -17.5 C 19.035156 -18.476562 17.957031 -18.96875 16.625 -18.96875 C 15.332031 -18.96875 14.160156 -18.460938 13.109375 -17.453125 C 12.054688 -16.453125 11.53125 -15.332031 11.53125 -14.09375 L 11.53125 0 Z M 2.921875 0 "/></g></g></g><g fill="#000000" fill-opacity="1"><g transform="translate(82.054765, 174.531289)"><g><path d="M 28.15625 -11.28125 L 10.0625 -11.28125 C 10.0625 -9.53125 10.628906 -8.234375 11.765625 -7.390625 C 12.898438 -6.546875 14.132812 -6.125 15.46875 -6.125 C 16.851562 -6.125 17.953125 -6.3125 18.765625 -6.6875 C 19.578125 -7.0625 20.503906 -7.796875 21.546875 -8.890625 L 27.765625 -5.78125 C 25.171875 -1.4375 20.859375 0.734375 14.828125 0.734375 C 11.066406 0.734375 7.84375 -0.550781 5.15625 -3.125 C 2.46875 -5.707031 1.125 -8.8125 1.125 -12.4375 C 1.125 -16.070312 2.46875 -19.1875 5.15625 -21.78125 C 7.84375 -24.375 11.066406 -25.671875 14.828125 -25.671875 C 18.785156 -25.671875 22.003906 -24.523438 24.484375 -22.234375 C 26.960938 -19.953125 28.203125 -16.691406 28.203125 -12.453125 C 28.203125 -11.867188 28.1875 -11.476562 28.15625 -11.28125 Z M 10.3125 -16.046875 L 19.796875 -16.046875 C 19.597656 -17.335938 19.082031 -18.332031 18.25 -19.03125 C 17.425781 -19.726562 16.367188 -20.078125 15.078125 -20.078125 C 13.648438 -20.078125 12.515625 -19.703125 11.671875 -18.953125 C 10.828125 -18.210938 10.375 -17.242188 10.3125 -16.046875 Z M 10.3125 -16.046875 "/></g></g></g><g fill="#000000" fill-opacity="1"><g transform="translate(108.990802, 174.531289)"><g><path d="M 3.734375 -38.84375 C 4.742188 -39.851562 5.945312 -40.359375 7.34375 -40.359375 C 8.738281 -40.359375 9.9375 -39.851562 10.9375 -38.84375 C 11.945312 -37.84375 12.453125 -36.644531 12.453125 -35.25 C 12.453125 -33.851562 11.945312 -32.648438 10.9375 -31.640625 C 9.9375 -30.640625 8.738281 -30.140625 7.34375 -30.140625 C 5.945312 -30.140625 4.742188 -30.640625 3.734375 -31.640625 C 2.734375 -32.648438 2.234375 -33.851562 2.234375 -35.25 C 2.234375 -36.644531 2.734375 -37.84375 3.734375 -38.84375 Z M 2.921875 -24.9375 L 2.921875 0 L 11.53125 0 L 11.53125 -24.9375 Z M 2.921875 -24.9375 "/></g></g></g><g fill="#000000" fill-opacity="1"><g transform="translate(121.291884, 174.531289)"><g><path d="M 4.375 -24.9375 L 4.375 -34.234375 L 12.984375 -34.234375 L 12.984375 -24.9375 L 18.234375 -24.9375 L 18.234375 -18.375 L 12.984375 -18.375 L 12.984375 -10.453125 C 12.984375 -8.148438 13.628906 -7 14.921875 -7 C 15.253906 -7 15.597656 -7.0625 15.953125 -7.1875 C 16.304688 -7.320312 16.582031 -7.453125 16.78125 -7.578125 L 17.0625 -7.78125 L 19.203125 -0.828125 C 17.359375 0.210938 15.253906 0.734375 12.890625 0.734375 C 11.265625 0.734375 9.867188 0.453125 8.703125 -0.109375 C 7.535156 -0.679688 6.648438 -1.445312 6.046875 -2.40625 C 5.453125 -3.363281 5.023438 -4.367188 4.765625 -5.421875 C 4.503906 -6.472656 4.375 -7.597656 4.375 -8.796875 L 4.375 -18.375 L 0.78125 -18.375 L 0.78125 -24.9375 Z M 4.375 -24.9375 "/></g></g></g><g fill="#000000" fill-opacity="1"><g transform="translate(138.11472, 174.531289)"><g><path d="M 9.234375 -24.9375 L 15.3125 -11.375 L 21.390625 -24.9375 L 31.609375 -24.9375 L 18.234375 0 L 12.40625 0 L -0.96875 -24.9375 Z M 9.234375 -24.9375 "/></g></g></g><g fill="#000000" fill-opacity="1"><g transform="translate(166.363521, 174.531289)"><g/></g></g><g fill="#000000" fill-opacity="1"><g transform="translate(177.254588, 174.531289)"><g><path d="M 0.390625 -32.09375 L 0.390625 -40.109375 L 28.59375 -40.109375 L 28.59375 -32.09375 L 19.0625 -32.09375 L 19.0625 0 L 9.921875 0 L 9.921875 -32.09375 Z M 0.390625 -32.09375 "/></g></g></g><g fill="#000000" fill-opacity="1"><g transform="translate(203.850277, 174.531289)"><g><path d="M 2.921875 0 L 2.921875 -24.9375 L 11.53125 -24.9375 L 11.53125 -21.34375 L 11.625 -21.34375 C 11.6875 -21.476562 11.789062 -21.640625 11.9375 -21.828125 C 12.082031 -22.023438 12.394531 -22.363281 12.875 -22.84375 C 13.363281 -23.332031 13.882812 -23.769531 14.4375 -24.15625 C 14.988281 -24.550781 15.703125 -24.898438 16.578125 -25.203125 C 17.453125 -25.515625 18.34375 -25.671875 19.25 -25.671875 C 20.195312 -25.671875 21.125 -25.539062 22.03125 -25.28125 C 22.9375 -25.019531 23.597656 -24.757812 24.015625 -24.5 L 24.703125 -24.125 L 21.109375 -16.828125 C 20.035156 -17.734375 18.539062 -18.1875 16.625 -18.1875 C 15.59375 -18.1875 14.703125 -17.957031 13.953125 -17.5 C 13.210938 -17.050781 12.6875 -16.5 12.375 -15.84375 C 12.0625 -15.195312 11.84375 -14.644531 11.71875 -14.1875 C 11.59375 -13.738281 11.53125 -13.382812 11.53125 -13.125 L 11.53125 0 Z M 2.921875 0 "/></g></g></g><g fill="#000000" fill-opacity="1"><g transform="translate(225.681095, 174.531289)"><g><path d="M 4.625 -3.078125 C 2.289062 -5.628906 1.125 -8.75 1.125 -12.4375 C 1.125 -16.132812 2.289062 -19.265625 4.625 -21.828125 C 6.957031 -24.390625 9.921875 -25.671875 13.515625 -25.671875 C 16.828125 -25.671875 19.550781 -24.632812 21.6875 -22.5625 L 21.6875 -24.9375 L 30.296875 -24.9375 L 30.296875 0 L 21.78125 0 L 21.78125 -2.8125 L 21.6875 -2.8125 C 19.550781 -0.445312 16.828125 0.734375 13.515625 0.734375 C 9.921875 0.734375 6.957031 -0.535156 4.625 -3.078125 Z M 11.9375 -16.671875 C 10.820312 -15.578125 10.265625 -14.171875 10.265625 -12.453125 C 10.265625 -10.734375 10.796875 -9.328125 11.859375 -8.234375 C 12.929688 -7.148438 14.34375 -6.609375 16.09375 -6.609375 C 17.78125 -6.609375 19.164062 -7.160156 20.25 -8.265625 C 21.332031 -9.367188 21.875 -10.765625 21.875 -12.453125 C 21.875 -14.171875 21.316406 -15.578125 20.203125 -16.671875 C 19.085938 -17.773438 17.71875 -18.328125 16.09375 -18.328125 C 14.4375 -18.328125 13.050781 -17.773438 11.9375 -16.671875 Z M 11.9375 -16.671875 "/></g></g></g><g fill="#000000" fill-opacity="1"><g transform="translate(256.506818, 174.531289)"><g><path d="M 9.234375 -24.9375 L 15.3125 -11.375 L 21.390625 -24.9375 L 31.609375 -24.9375 L 18.234375 0 L 12.40625 0 L -0.96875 -24.9375 Z M 9.234375 -24.9375 "/></g></g></g><g fill="#000000" fill-opacity="1"><g transform="translate(284.755618, 174.531289)"><g><path d="M 28.15625 -11.28125 L 10.0625 -11.28125 C 10.0625 -9.53125 10.628906 -8.234375 11.765625 -7.390625 C 12.898438 -6.546875 14.132812 -6.125 15.46875 -6.125 C 16.851562 -6.125 17.953125 -6.3125 18.765625 -6.6875 C 19.578125 -7.0625 20.503906 -7.796875 21.546875 -8.890625 L 27.765625 -5.78125 C 25.171875 -1.4375 20.859375 0.734375 14.828125 0.734375 C 11.066406 0.734375 7.84375 -0.550781 5.15625 -3.125 C 2.46875 -5.707031 1.125 -8.8125 1.125 -12.4375 C 1.125 -16.070312 2.46875 -19.1875 5.15625 -21.78125 C 7.84375 -24.375 11.066406 -25.671875 14.828125 -25.671875 C 18.785156 -25.671875 22.003906 -24.523438 24.484375 -22.234375 C 26.960938 -19.953125 28.203125 -16.691406 28.203125 -12.453125 C 28.203125 -11.867188 28.1875 -11.476562 28.15625 -11.28125 Z M 10.3125 -16.046875 L 19.796875 -16.046875 C 19.597656 -17.335938 19.082031 -18.332031 18.25 -19.03125 C 17.425781 -19.726562 16.367188 -20.078125 15.078125 -20.078125 C 13.648438 -20.078125 12.515625 -19.703125 11.671875 -18.953125 C 10.828125 -18.210938 10.375 -17.242188 10.3125 -16.046875 Z M 10.3125 -16.046875 "/></g></g></g><g fill="#000000" fill-opacity="1"><g transform="translate(311.691667, 174.531289)"><g><path d="M 2.921875 0 L 2.921875 -41.8125 L 11.53125 -41.8125 L 11.53125 0 Z M 2.921875 0 "/></g></g></g><g fill="#000000" fill-opacity="1"><g transform="translate(102.148034, 224.418662)"><g><path d="M 44.828125 -25.703125 L 44.828125 -15.734375 C 43.640625 -10.285156 41.039062 -6.160156 37.03125 -3.359375 C 33.03125 -0.566406 28.566406 0.828125 23.640625 0.828125 C 17.441406 0.828125 12.164062 -1.488281 7.8125 -6.125 C 3.457031 -10.757812 1.28125 -16.359375 1.28125 -22.921875 C 1.28125 -29.597656 3.410156 -35.234375 7.671875 -39.828125 C 11.941406 -44.421875 17.265625 -46.71875 23.640625 -46.71875 C 31.097656 -46.71875 36.992188 -44.101562 41.328125 -38.875 L 34.484375 -31.375 C 32.035156 -35.300781 28.625 -37.265625 24.25 -37.265625 C 21.019531 -37.265625 18.265625 -35.863281 15.984375 -33.0625 C 13.710938 -30.269531 12.578125 -26.890625 12.578125 -22.921875 C 12.578125 -19.023438 13.710938 -15.691406 15.984375 -12.921875 C 18.265625 -10.160156 21.019531 -8.78125 24.25 -8.78125 C 26.914062 -8.78125 29.238281 -9.585938 31.21875 -11.203125 C 33.207031 -12.816406 34.203125 -14.960938 34.203125 -17.640625 L 23.640625 -17.640625 L 23.640625 -25.703125 Z M 44.828125 -25.703125 "/></g></g></g><g fill="#000000" fill-opacity="1"><g transform="translate(145.529207, 224.418662)"><g><path d="M 3.34375 0 L 3.34375 -28.53125 L 13.1875 -28.53125 L 13.1875 -24.421875 L 13.296875 -24.421875 C 13.367188 -24.566406 13.488281 -24.75 13.65625 -24.96875 C 13.820312 -25.195312 14.179688 -25.585938 14.734375 -26.140625 C 15.296875 -26.703125 15.890625 -27.203125 16.515625 -27.640625 C 17.148438 -28.085938 17.96875 -28.488281 18.96875 -28.84375 C 19.96875 -29.195312 20.988281 -29.375 22.03125 -29.375 C 23.101562 -29.375 24.15625 -29.222656 25.1875 -28.921875 C 26.226562 -28.628906 26.992188 -28.332031 27.484375 -28.03125 L 28.25 -27.59375 L 24.140625 -19.25 C 22.921875 -20.28125 21.21875 -20.796875 19.03125 -20.796875 C 17.84375 -20.796875 16.820312 -20.535156 15.96875 -20.015625 C 15.113281 -19.503906 14.507812 -18.875 14.15625 -18.125 C 13.800781 -17.382812 13.550781 -16.753906 13.40625 -16.234375 C 13.257812 -15.722656 13.1875 -15.316406 13.1875 -15.015625 L 13.1875 0 Z M 3.34375 0 "/></g></g></g><g fill="#000000" fill-opacity="1"><g transform="translate(170.501084, 224.418662)"><g><path d="M 6.03125 -3.390625 C 2.863281 -6.210938 1.28125 -9.828125 1.28125 -14.234375 C 1.28125 -18.648438 2.929688 -22.273438 6.234375 -25.109375 C 9.535156 -27.953125 13.613281 -29.375 18.46875 -29.375 C 23.25 -29.375 27.28125 -27.941406 30.5625 -25.078125 C 33.84375 -22.222656 35.484375 -18.609375 35.484375 -14.234375 C 35.484375 -9.859375 33.878906 -6.253906 30.671875 -3.421875 C 27.460938 -0.585938 23.394531 0.828125 18.46875 0.828125 C 13.351562 0.828125 9.207031 -0.578125 6.03125 -3.390625 Z M 13.65625 -19.078125 C 12.375 -17.816406 11.734375 -16.203125 11.734375 -14.234375 C 11.734375 -12.273438 12.34375 -10.671875 13.5625 -9.421875 C 14.789062 -8.179688 16.40625 -7.5625 18.40625 -7.5625 C 20.332031 -7.5625 21.914062 -8.191406 23.15625 -9.453125 C 24.40625 -10.710938 25.03125 -12.304688 25.03125 -14.234375 C 25.03125 -16.203125 24.390625 -17.816406 23.109375 -19.078125 C 21.828125 -20.335938 20.257812 -20.96875 18.40625 -20.96875 C 16.519531 -20.96875 14.9375 -20.335938 13.65625 -19.078125 Z M 13.65625 -19.078125 "/></g></g></g><g fill="#000000" fill-opacity="1"><g transform="translate(204.538568, 224.418662)"><g><path d="M 12.625 -28.53125 L 12.625 -14.96875 C 12.625 -12.144531 13.050781 -10.140625 13.90625 -8.953125 C 14.757812 -7.765625 16.203125 -7.171875 18.234375 -7.171875 C 20.273438 -7.171875 21.722656 -7.765625 22.578125 -8.953125 C 23.429688 -10.140625 23.859375 -12.144531 23.859375 -14.96875 L 23.859375 -28.53125 L 33.703125 -28.53125 L 33.703125 -12.578125 C 33.703125 -7.828125 32.46875 -4.40625 30 -2.3125 C 27.539062 -0.21875 23.617188 0.828125 18.234375 0.828125 C 12.859375 0.828125 8.9375 -0.21875 6.46875 -2.3125 C 4.007812 -4.40625 2.78125 -7.828125 2.78125 -12.578125 L 2.78125 -28.53125 Z M 12.625 -28.53125 "/></g></g></g><g fill="#000000" fill-opacity="1"><g transform="translate(238.297973, 224.418662)"><g><path d="M 32.703125 -25 C 35.378906 -22.09375 36.71875 -18.523438 36.71875 -14.296875 C 36.71875 -10.066406 35.378906 -6.488281 32.703125 -3.5625 C 30.035156 -0.632812 26.644531 0.828125 22.53125 0.828125 C 18.75 0.828125 15.632812 -0.351562 13.1875 -2.71875 L 13.1875 14.46875 L 3.34375 14.46875 L 3.34375 -28.53125 L 13.078125 -28.53125 L 13.078125 -25.3125 L 13.1875 -25.3125 C 15.632812 -28.019531 18.75 -29.375 22.53125 -29.375 C 26.644531 -29.375 30.035156 -27.914062 32.703125 -25 Z M 24.328125 -9.453125 C 25.609375 -10.710938 26.25 -12.328125 26.25 -14.296875 C 26.25 -16.265625 25.632812 -17.867188 24.40625 -19.109375 C 23.1875 -20.347656 21.578125 -20.96875 19.578125 -20.96875 C 17.648438 -20.96875 16.0625 -20.335938 14.8125 -19.078125 C 13.570312 -17.816406 12.953125 -16.222656 12.953125 -14.296875 C 12.953125 -12.328125 13.59375 -10.710938 14.875 -9.453125 C 16.15625 -8.191406 17.722656 -7.5625 19.578125 -7.5625 C 21.472656 -7.5625 23.054688 -8.191406 24.328125 -9.453125 Z M 24.328125 -9.453125 "/></g></g></g><g transform="matrix(1, 0, 0, 1, 62, 192)"><g clip-path="url(#00840621b2)"><g fill="#ffffff" fill-opacity="1"><g transform="translate(4.278896, 18.978261)"><g><path d="M -2.171875 -4.109375 L -2.734375 -5.140625 L 0.84375 -7.109375 L 1.40625 -6.078125 L 0.1875 -5.40625 L 2.421875 -1.328125 L 1.265625 -0.6875 L -0.96875 -4.765625 Z M -2.171875 -4.109375 "/></g></g></g><g fill="#ffffff" fill-opacity="1"><g transform="translate(7.714622, 17.099003)"><g><path d="M -2.421875 -5.3125 L -0.609375 -6.3125 C -0.109375 -6.582031 0.363281 -6.664062 0.8125 -6.5625 C 1.269531 -6.46875 1.628906 -6.179688 1.890625 -5.703125 C 2.097656 -5.328125 2.175781 -4.960938 2.125 -4.609375 C 2.082031 -4.253906 1.929688 -3.9375 1.671875 -3.65625 L 4.578125 -2.5 L 3.09375 -1.6875 L 0.421875 -2.859375 L 1.53125 -0.84375 L 0.375 -0.203125 Z M -0.015625 -3.6875 L 0.125 -3.765625 C 0.238281 -3.816406 0.328125 -3.863281 0.390625 -3.90625 C 0.460938 -3.945312 0.535156 -4.007812 0.609375 -4.09375 C 0.691406 -4.175781 0.75 -4.253906 0.78125 -4.328125 C 0.820312 -4.410156 0.835938 -4.503906 0.828125 -4.609375 C 0.816406 -4.722656 0.773438 -4.84375 0.703125 -4.96875 C 0.640625 -5.09375 0.5625 -5.1875 0.46875 -5.25 C 0.382812 -5.3125 0.300781 -5.347656 0.21875 -5.359375 C 0.144531 -5.367188 0.0546875 -5.359375 -0.046875 -5.328125 C -0.160156 -5.304688 -0.253906 -5.273438 -0.328125 -5.234375 C -0.398438 -5.203125 -0.492188 -5.160156 -0.609375 -5.109375 L -0.75 -5.03125 Z M -0.015625 -3.6875 "/></g></g></g><g fill="#ffffff" fill-opacity="1"><g transform="translate(11.894544, 14.812689)"><g><path d="M 0.171875 -6.734375 L 5.03125 -2.75 L 3.78125 -2.0625 L 2.84375 -2.890625 L 0.890625 -1.828125 L 1.078125 -0.59375 L -0.171875 0.09375 L -0.90625 -6.140625 Z M 1.875 -3.6875 L 0.5 -4.859375 L 0.484375 -4.859375 L 0.71875 -3.0625 Z M 1.875 -3.6875 "/></g></g></g><g fill="#ffffff" fill-opacity="1"><g transform="translate(16.49618, 12.295707)"><g><path d="M 1.96875 -1.078125 L -2.96875 -5.015625 L -1.65625 -5.734375 L 1.46875 -3.078125 L 0.921875 -7.140625 L 2.234375 -7.859375 L 2.890625 -1.578125 Z M 1.96875 -1.078125 "/></g></g></g><g fill="#ffffff" fill-opacity="1"><g transform="translate(21.097817, 9.778725)"><g><path d="M 0.5 -6.90625 L 1.0625 -5.875 L -0.703125 -4.921875 L -0.140625 -3.921875 L 1.546875 -4.84375 L 2.09375 -3.828125 L 0.40625 -2.90625 L 0.96875 -1.875 L 2.734375 -2.828125 L 3.296875 -1.796875 L 0.375 -0.203125 L -2.421875 -5.3125 Z M 0.5 -6.90625 "/></g></g></g><g fill="#ffffff" fill-opacity="1"><g transform="translate(24.434316, 7.953742)"><g><path d="M -1.265625 -5.953125 L 0.96875 -1.875 L 2.734375 -2.828125 L 3.296875 -1.796875 L 0.375 -0.203125 L -2.421875 -5.3125 Z M -1.265625 -5.953125 "/></g></g></g><g fill="#ffffff" fill-opacity="1"><g transform="translate(7.41268, 25.99261)"><g><path d="M 0.53125 -6.9375 L 1.09375 -5.90625 L -0.703125 -4.921875 L -0.140625 -3.921875 L 1.515625 -4.828125 L 2.0625 -3.8125 L 0.40625 -2.90625 L 1.53125 -0.84375 L 0.375 -0.203125 L -2.421875 -5.3125 Z M 0.53125 -6.9375 "/></g></g></g><g fill="#ffffff" fill-opacity="1"><g transform="translate(10.668556, 24.211726)"><g><path d="M -1.265625 -2.640625 C -1.671875 -3.378906 -1.757812 -4.140625 -1.53125 -4.921875 C -1.300781 -5.710938 -0.832031 -6.300781 -0.125 -6.6875 C 0.59375 -7.082031 1.335938 -7.160156 2.109375 -6.921875 C 2.890625 -6.679688 3.484375 -6.191406 3.890625 -5.453125 C 4.304688 -4.703125 4.40625 -3.9375 4.1875 -3.15625 C 3.96875 -2.375 3.492188 -1.785156 2.765625 -1.390625 C 2.023438 -0.984375 1.269531 -0.898438 0.5 -1.140625 C -0.257812 -1.378906 -0.847656 -1.878906 -1.265625 -2.640625 Z M -0.015625 -3.328125 C 0.140625 -3.054688 0.316406 -2.832031 0.515625 -2.65625 C 0.722656 -2.488281 0.972656 -2.378906 1.265625 -2.328125 C 1.554688 -2.285156 1.851562 -2.347656 2.15625 -2.515625 C 2.59375 -2.753906 2.835938 -3.082031 2.890625 -3.5 C 2.941406 -3.925781 2.851562 -4.347656 2.625 -4.765625 C 2.40625 -5.179688 2.097656 -5.476562 1.703125 -5.65625 C 1.316406 -5.832031 0.910156 -5.800781 0.484375 -5.5625 C 0.0546875 -5.332031 -0.1875 -5.003906 -0.25 -4.578125 C -0.3125 -4.160156 -0.234375 -3.742188 -0.015625 -3.328125 Z M -0.015625 -3.328125 "/></g></g></g><g fill="#ffffff" fill-opacity="1"><g transform="translate(15.846949, 21.379272)"><g><path d="M -2.421875 -5.3125 L -0.609375 -6.3125 C -0.109375 -6.582031 0.363281 -6.664062 0.8125 -6.5625 C 1.269531 -6.46875 1.628906 -6.179688 1.890625 -5.703125 C 2.097656 -5.328125 2.175781 -4.960938 2.125 -4.609375 C 2.082031 -4.253906 1.929688 -3.9375 1.671875 -3.65625 L 4.578125 -2.5 L 3.09375 -1.6875 L 0.421875 -2.859375 L 1.53125 -0.84375 L 0.375 -0.203125 Z M -0.015625 -3.6875 L 0.125 -3.765625 C 0.238281 -3.816406 0.328125 -3.863281 0.390625 -3.90625 C 0.460938 -3.945312 0.535156 -4.007812 0.609375 -4.09375 C 0.691406 -4.175781 0.75 -4.253906 0.78125 -4.328125 C 0.820312 -4.410156 0.835938 -4.503906 0.828125 -4.609375 C 0.816406 -4.722656 0.773438 -4.84375 0.703125 -4.96875 C 0.640625 -5.09375 0.5625 -5.1875 0.46875 -5.25 C 0.382812 -5.3125 0.300781 -5.347656 0.21875 -5.359375 C 0.144531 -5.367188 0.0546875 -5.359375 -0.046875 -5.328125 C -0.160156 -5.304688 -0.253906 -5.273438 -0.328125 -5.234375 C -0.398438 -5.203125 -0.492188 -5.160156 -0.609375 -5.109375 L -0.75 -5.03125 Z M -0.015625 -3.6875 "/></g></g></g><g fill="#ffffff" fill-opacity="1"><g transform="translate(20.026871, 19.092958)"><g><path d="M 1.5 -7.46875 L 3.3125 -4.171875 C 3.644531 -3.546875 3.734375 -2.976562 3.578125 -2.46875 C 3.421875 -1.957031 3.015625 -1.523438 2.359375 -1.171875 C 1.703125 -0.816406 1.113281 -0.707031 0.59375 -0.84375 C 0.0820312 -0.976562 -0.335938 -1.359375 -0.671875 -1.984375 L -2.484375 -5.28125 L -1.3125 -5.921875 L 0.3125 -2.96875 C 0.53125 -2.550781 0.742188 -2.296875 0.953125 -2.203125 C 1.171875 -2.117188 1.425781 -2.15625 1.71875 -2.3125 C 2.007812 -2.476562 2.175781 -2.675781 2.21875 -2.90625 C 2.269531 -3.132812 2.1875 -3.457031 1.96875 -3.875 L 0.34375 -6.828125 Z M 1.5 -7.46875 "/></g></g></g><g fill="#ffffff" fill-opacity="1"><g transform="translate(24.380445, 16.71166)"><g><path d="M 4.59375 -2.515625 L 2.703125 -5.421875 L 2.65625 -5.390625 L 3.265625 -1.828125 L 2.5625 -1.4375 L -0.125 -3.875 L -0.140625 -3.859375 L 1.265625 -0.6875 L 0.09375 -0.046875 L -2.234375 -5.421875 L -1 -6.09375 L 1.75 -3.78125 L 1.28125 -7.34375 L 2.515625 -8.015625 L 5.75 -3.15625 Z M 4.59375 -2.515625 "/></g></g></g><g fill="#ffffff" fill-opacity="1"><g transform="translate(29.986751, 13.645149)"><g><path d="M 0.34375 -1.921875 C 0.539062 -2.023438 0.75 -2.046875 0.96875 -1.984375 C 1.1875 -1.921875 1.347656 -1.789062 1.453125 -1.59375 C 1.796875 -0.988281 1.773438 -0.203125 1.390625 0.765625 L 0.9375 0.671875 C 0.945312 0.617188 0.957031 0.554688 0.96875 0.484375 C 0.988281 0.421875 1 0.289062 1 0.09375 C 1 -0.101562 0.972656 -0.285156 0.921875 -0.453125 C 0.753906 -0.410156 0.585938 -0.421875 0.421875 -0.484375 C 0.253906 -0.546875 0.125 -0.65625 0.03125 -0.8125 C -0.0703125 -1.007812 -0.09375 -1.210938 -0.03125 -1.421875 C 0.0195312 -1.640625 0.144531 -1.804688 0.34375 -1.921875 Z M 0.34375 -1.921875 "/></g></g></g></g></g></svg>